<svg width="37" height="40" viewBox="0 0 37 40" fill="none" xmlns="http://www.w3.org/2000/svg">
<path d="M0.60983 1.96599L19.01 20.0104L0.746673 38.2211C0.447878 37.832 0.215934 37.3959 0.0603493 36.9306C-0.0201164 36.4038 -0.0201164 35.8679 0.0603493 35.3411V4.35128C0.00561183 3.51969 0.197193 2.6881 0.607724 1.96599M26.9364 12.1408L20.9301 18.0904L2.7488 0.21018C3.33828 0.00596712 3.96987 -0.0508753 4.58672 0.0459679C5.55515 0.311234 6.47937 0.71966 7.3278 1.2523L23.7827 10.3577C24.8522 10.9324 25.8943 11.5366 26.9364 12.1408ZM20.9322 21.9578L26.9091 27.8273L22.5764 30.24L9.3573 37.5875C8.26255 38.1917 7.16359 38.7685 6.0941 39.4275C5.63647 39.7124 5.12332 39.8964 4.58892 39.9672C4.05451 40.038 3.51115 39.9939 2.99512 39.838L20.9322 21.9578ZM36.4271 20.0104C36.4424 20.7466 36.2564 21.473 35.8891 22.1111C35.5218 22.7493 34.9871 23.275 34.3428 23.6315L29.4038 26.3726L22.9048 20.0104L29.4312 13.5388C31.1049 14.4714 32.7513 15.404 34.3955 16.2819C35.0512 16.6485 35.5898 17.1931 35.949 17.8529C36.3081 18.5127 36.4753 19.2607 36.4271 20.0104Z" fill="white"/>
</svg>
